# xmcd
#
# Track frame offsets: 
#        150
#        11262
#        20235
#        30225
#        42155
#        52402
#        62390
#        71915
#        81092
#        91162
#        99995
#        109805
#        117625
#        129995
#        142615
#        154332
#        163160
#        175955
#        186477
#        198545
#        209730
#        219255
#        229670
#        238810
#        249037
#        257912
#        267945
#        277987
#        288512
#        298207
#        308030
#        317657
#        327760
#        337400
#        347147
#
# Disc length: 4798 seconds
#
# Revision: 1
# Processed by: cddbd v1.5.2PL0 Copyright (c) Steve Scherf et al.
# Submitted via: ExactAudioCopy v0.95a5
#
DISCID=1512bc23
DTITLE=Wanda Jackson - Wanda Rocks
DYEAR=1900
DGENRE=
TTITLE0=I Gotta Know
TTITLE1=Baby Loves Him
TTITLE2=Honey Bop
TTITLE3=Hot Dog! That Made Him Mad
TTITLE4=Cool Love
TTITLE5=Fujiyama Mama
TTITLE6=[Let's Have A] Party
TTITLE7=I Wanna Waltz
TTITLE8=Money Honey
TTITLE9=Long Tall Sally
TTITLE10=Mean Mean Man
TTITLE11=Rock Your Baby
TTITLE12=Kansas City
TTITLE13=Fallin'
TTITLE14=Sparkling Brown Eyes
TTITLE15=Hard Headed Woman
TTITLE16=It Doesn't Matter Anymore
TTITLE17=Lonely Weekends
TTITLE18=Tweedle Dee
TTITLE19=Riot In Cell Block #9
TTITLE20=Funnel Of Love
TTITLE21=Tongue Tied
TTITLE22=There's A Party Goin' On
TTITLE23=Lost Weekend
TTITLE24=Man We Had A Party
TTITLE25=Stupid Cupid
TTITLE26=Brown Eyed Handsome Man
TTITLE27=Who Shot Sam
TTITLE28=Slippin' And Slidin'
TTITLE29=My Baby Left Me
TTITLE30=Sticks And Stones
TTITLE31=Let My Love Walk In
TTITLE32=You Bug Me Bad
TTITLE33=Yakety Yak
TTITLE34=Searchin'
EXTD=Bear Family BCD 16631 AR\nGermany\nwww.bear-family.de\nwww.rockol
EXTD=a.net
EXTT0=
EXTT1=
EXTT2=
EXTT3=
EXTT4=
EXTT5=
EXTT6=
EXTT7=
EXTT8=
EXTT9=
EXTT10=
EXTT11=
EXTT12=
EXTT13=
EXTT14=
EXTT15=
EXTT16=
EXTT17=
EXTT18=
EXTT19=
EXTT20=
EXTT21=
EXTT22=
EXTT23=
EXTT24=
EXTT25=
EXTT26=
EXTT27=
EXTT28=
EXTT29=
EXTT30=
EXTT31=
EXTT32=
EXTT33=
EXTT34=
PLAYORDER=
